<?xml version="1.0" encoding="utf-8" standalone="no"?>
<!DOCTYPE svg PUBLIC "-//W3C//DTD SVG 1.1//EN"
  "http://www.w3.org/Graphics/SVG/1.1/DTD/svg11.dtd">
<!-- Created with matplotlib (http://matplotlib.org/) -->
<svg height="350pt" version="1.1" viewBox="0 0 549 350" width="549pt" xmlns="http://www.w3.org/2000/svg" xmlns:xlink="http://www.w3.org/1999/xlink">
 <defs>
  <style type="text/css">
*{stroke-linecap:butt;stroke-linejoin:round;stroke-miterlimit:100000;}
  </style>
 </defs>
 <g id="figure_1">
  <g id="patch_1">
   <path d="M 0 350.40257 
L 549.739375 350.40257 
L 549.739375 0 
L 0 0 
L 0 350.40257 
z
" style="fill:none;"/>
  </g>
  <g id="axes_1">
   <g id="patch_2">
    <path d="M 40.339375 152.831282 
L 542.539375 152.831282 
L 542.539375 7.2 
L 40.339375 7.2 
L 40.339375 152.831282 
z
" style="fill:none;"/>
   </g>
   <g id="line2d_1">
    <path clip-path="url(#p8a42260d0a)" d="M 56.64457 15.290627 
L 59.905609 15.290627 
L 59.905609 15.290627 
L 59.905609 15.290627 
L 63.166648 15.290627 
L 63.166648 15.290627 
L 63.166648 15.290627 
L 66.427687 15.290627 
L 66.427687 15.290627 
L 66.427687 15.290627 
L 69.688726 15.290627 
L 69.688726 15.290627 
L 69.688726 15.290627 
L 72.949765 15.290627 
L 72.949765 15.290627 
L 72.949765 15.290627 
L 76.210804 15.290627 
L 76.210804 15.290627 
L 76.210804 15.290627 
L 79.471843 15.290627 
L 79.471843 15.290627 
L 79.471843 15.290627 
L 82.732881 15.290627 
L 82.732881 15.290627 
L 82.732881 15.290627 
L 85.99392 15.290627 
L 85.99392 15.290627 
L 85.99392 15.290627 
L 89.254959 15.290627 
L 89.254959 15.290627 
L 89.254959 15.290627 
L 92.515998 15.290627 
L 92.515998 15.290627 
L 92.515998 15.290627 
L 95.777037 15.290627 
L 95.777037 15.290627 
L 95.777037 15.290627 
L 99.038076 15.290627 
L 99.038076 15.290627 
L 99.038076 15.290627 
L 102.299115 15.290627 
L 102.299115 15.290627 
L 102.299115 15.290627 
L 105.560154 15.290627 
L 105.560154 15.290627 
L 105.560154 15.290627 
L 108.821193 15.290627 
L 108.821193 15.290627 
L 108.821193 15.290627 
L 112.082232 15.290627 
L 112.082232 15.290627 
L 112.082232 15.290627 
L 115.343271 15.290627 
L 115.343271 15.290627 
L 115.343271 15.290627 
L 118.60431 15.290627 
L 118.60431 15.290627 
L 118.60431 15.290627 
L 121.865349 15.290627 
L 121.865349 15.290627 
L 121.865349 15.290627 
L 125.126388 15.290627 
L 125.126388 15.290627 
L 125.126388 15.290627 
L 128.387427 15.290627 
L 128.387427 15.290627 
L 128.387427 15.290627 
L 131.648466 15.290627 
L 131.648466 15.290627 
L 131.648466 15.290627 
L 134.909505 15.290627 
L 134.909505 15.290627 
L 134.909505 15.290627 
L 138.170544 15.290627 
L 138.170544 15.290627 
L 138.170544 15.290627 
L 141.431583 15.290627 
L 141.431583 15.290627 
L 141.431583 15.290627 
L 144.692622 15.290627 
L 144.692622 15.290627 
L 144.692622 15.290627 
L 147.953661 15.290627 
L 147.953661 15.290627 
L 147.953661 15.290627 
L 151.2147 15.290627 
L 151.2147 15.290627 
L 151.2147 15.290627 
L 154.475739 15.290627 
L 154.475739 15.290627 
L 154.475739 15.290627 
L 157.736778 15.290627 
L 157.736778 15.290627 
L 157.736778 15.290627 
L 160.997817 15.290627 
L 160.997817 15.290627 
L 160.997817 15.290627 
L 164.258856 15.290627 
L 164.258856 15.290627 
L 164.258856 15.290627 
L 167.519894 15.290627 
L 167.519894 15.290627 
L 167.519894 15.290627 
L 170.780933 15.290627 
L 170.780933 15.290627 
L 170.780933 15.290627 
L 174.041972 15.290627 
L 174.041972 15.290627 
L 174.041972 15.290627 
L 177.303011 15.290627 
L 177.303011 15.290627 
L 177.303011 15.290627 
L 180.56405 15.290627 
L 180.56405 15.290627 
L 180.56405 15.290627 
L 183.825089 15.290627 
L 183.825089 15.290627 
L 183.825089 15.290627 
L 187.086128 15.290627 
L 187.086128 15.290627 
L 187.086128 15.290627 
L 190.347167 15.290627 
L 190.347167 15.290627 
L 190.347167 15.290627 
L 193.608206 15.290627 
L 193.608206 15.290627 
L 193.608206 15.290627 
L 196.869245 15.290627 
L 196.869245 15.290627 
L 196.869245 15.290627 
L 200.130284 15.290627 
L 200.130284 15.290627 
L 200.130284 15.290627 
L 203.391323 15.290627 
L 203.391323 15.290627 
L 203.391323 15.290627 
L 206.652362 15.290627 
L 206.652362 15.290627 
L 206.652362 15.290627 
L 209.913401 15.290627 
L 209.913401 15.290627 
L 209.913401 15.290627 
L 213.17444 15.290627 
L 213.17444 15.290627 
L 213.17444 15.290627 
L 216.435479 15.290627 
L 216.435479 15.290627 
L 216.435479 15.290627 
L 219.696518 15.290627 
L 219.696518 15.290627 
L 219.696518 15.290627 
L 222.957557 15.290627 
L 222.957557 15.290627 
L 222.957557 15.290627 
L 226.218596 15.290627 
L 226.218596 15.290627 
L 226.218596 15.290627 
L 229.479635 15.290627 
L 229.479635 15.290627 
L 229.479635 15.290627 
L 232.740674 15.290627 
L 232.740674 15.290627 
L 232.740674 15.290627 
L 236.001713 15.290627 
L 236.001713 15.290627 
L 236.001713 15.290627 
L 239.262752 15.290627 
L 239.262752 15.290627 
L 239.262752 15.290627 
L 242.523791 15.290627 
L 242.523791 15.290627 
L 242.523791 15.290627 
L 245.78483 15.290627 
L 245.78483 15.290627 
L 245.78483 15.290627 
L 249.045869 15.290627 
L 249.045869 15.290627 
L 249.045869 15.290627 
L 252.306907 15.290627 
L 252.306907 15.290627 
L 252.306907 15.290627 
L 255.567946 15.290627 
L 255.567946 15.290627 
L 255.567946 15.290627 
L 258.828985 15.290627 
L 258.828985 15.290627 
L 258.828985 15.290627 
L 262.090024 15.290627 
L 262.090024 15.290627 
L 262.090024 15.290627 
L 265.351063 15.290627 
L 265.351063 15.290627 
L 265.351063 15.290627 
L 268.612102 15.290627 
L 268.612102 15.290627 
L 268.612102 15.290627 
L 271.873141 15.290627 
L 271.873141 15.290627 
L 271.873141 15.290627 
L 275.13418 15.290627 
L 275.13418 15.290627 
L 275.13418 15.290627 
L 278.395219 15.290627 
L 278.395219 15.290627 
L 278.395219 15.290627 
L 281.656258 15.290627 
L 281.656258 15.290627 
L 281.656258 15.290627 
L 284.917297 15.290627 
L 284.917297 15.290627 
L 284.917297 15.290627 
L 288.178336 15.290627 
L 288.178336 144.740655 
L 522.973141 144.740655 
L 522.973141 144.740655 
" style="fill:none;stroke:#0000ff;stroke-linecap:square;"/>
   </g>
   <g id="patch_3">
    <path d="M 40.339375 7.2 
L 542.539375 7.2 
" style="fill:none;stroke:#000000;stroke-linecap:square;stroke-linejoin:miter;"/>
   </g>
   <g id="patch_4">
    <path d="M 542.539375 152.831282 
L 542.539375 7.2 
" style="fill:none;stroke:#000000;stroke-linecap:square;stroke-linejoin:miter;"/>
   </g>
   <g id="patch_5">
    <path d="M 40.339375 152.831282 
L 542.539375 152.831282 
" style="fill:none;stroke:#000000;stroke-linecap:square;stroke-linejoin:miter;"/>
   </g>
   <g id="patch_6">
    <path d="M 40.339375 152.831282 
L 40.339375 7.2 
" style="fill:none;stroke:#000000;stroke-linecap:square;stroke-linejoin:miter;"/>
   </g>
   <g id="matplotlib.axis_1">
    <g id="xtick_1">
     <g id="line2d_2">
      <path clip-path="url(#p8a42260d0a)" d="M 56.64457 152.831282 
L 56.64457 7.2 
" style="fill:none;stroke:#000000;stroke-dasharray:1.000000,3.000000;stroke-dashoffset:0.0;stroke-width:0.5;"/>
     </g>
     <g id="line2d_3">
      <defs>
       <path d="M 0 0 
L 0 -4 
" id="mf555c45e94" style="stroke:#000000;stroke-width:0.5;"/>
      </defs>
      <g>
       <use style="stroke:#000000;stroke-width:0.5;" x="56.6445698052" xlink:href="#mf555c45e94" y="152.831281701"/>
      </g>
     </g>
     <g id="line2d_4">
      <defs>
       <path d="M 0 0 
L 0 4 
" id="mad4e2ae556" style="stroke:#000000;stroke-width:0.5;"/>
      </defs>
      <g>
       <use style="stroke:#000000;stroke-width:0.5;" x="56.6445698052" xlink:href="#mad4e2ae556" y="7.2"/>
      </g>
     </g>
     <g id="text_1">
      <!-- 0 -->
      <defs>
       <path d="M 31.78125 66.40625 
Q 24.171875 66.40625 20.328125 58.90625 
Q 16.5 51.421875 16.5 36.375 
Q 16.5 21.390625 20.328125 13.890625 
Q 24.171875 6.390625 31.78125 6.390625 
Q 39.453125 6.390625 43.28125 13.890625 
Q 47.125 21.390625 47.125 36.375 
Q 47.125 51.421875 43.28125 58.90625 
Q 39.453125 66.40625 31.78125 66.40625 
M 31.78125 74.21875 
Q 44.046875 74.21875 50.515625 64.515625 
Q 56.984375 54.828125 56.984375 36.375 
Q 56.984375 17.96875 50.515625 8.265625 
Q 44.046875 -1.421875 31.78125 -1.421875 
Q 19.53125 -1.421875 13.0625 8.265625 
Q 6.59375 17.96875 6.59375 36.375 
Q 6.59375 54.828125 13.0625 64.515625 
Q 19.53125 74.21875 31.78125 74.21875 
" id="BitstreamVeraSans-Roman-30"/>
      </defs>
      <g transform="translate(52.8270698052 165.949406701)scale(0.12 -0.12)">
       <use xlink:href="#BitstreamVeraSans-Roman-30"/>
      </g>
     </g>
    </g>
    <g id="xtick_2">
     <g id="line2d_5">
      <path clip-path="url(#p8a42260d0a)" d="M 174.041972 152.831282 
L 174.041972 7.2 
" style="fill:none;stroke:#000000;stroke-dasharray:1.000000,3.000000;stroke-dashoffset:0.0;stroke-width:0.5;"/>
     </g>
     <g id="line2d_6">
      <g>
       <use style="stroke:#000000;stroke-width:0.5;" x="174.041972403" xlink:href="#mf555c45e94" y="152.831281701"/>
      </g>
     </g>
     <g id="line2d_7">
      <g>
       <use style="stroke:#000000;stroke-width:0.5;" x="174.041972403" xlink:href="#mad4e2ae556" y="7.2"/>
      </g>
     </g>
     <g id="text_2">
      <!-- 36 -->
      <defs>
       <path d="M 40.578125 39.3125 
Q 47.65625 37.796875 51.625 33 
Q 55.609375 28.21875 55.609375 21.1875 
Q 55.609375 10.40625 48.1875 4.484375 
Q 40.765625 -1.421875 27.09375 -1.421875 
Q 22.515625 -1.421875 17.65625 -0.515625 
Q 12.796875 0.390625 7.625 2.203125 
L 7.625 11.71875 
Q 11.71875 9.328125 16.59375 8.109375 
Q 21.484375 6.890625 26.8125 6.890625 
Q 36.078125 6.890625 40.9375 10.546875 
Q 45.796875 14.203125 45.796875 21.1875 
Q 45.796875 27.640625 41.28125 31.265625 
Q 36.765625 34.90625 28.71875 34.90625 
L 20.21875 34.90625 
L 20.21875 43.015625 
L 29.109375 43.015625 
Q 36.375 43.015625 40.234375 45.921875 
Q 44.09375 48.828125 44.09375 54.296875 
Q 44.09375 59.90625 40.109375 62.90625 
Q 36.140625 65.921875 28.71875 65.921875 
Q 24.65625 65.921875 20.015625 65.03125 
Q 15.375 64.15625 9.8125 62.3125 
L 9.8125 71.09375 
Q 15.4375 72.65625 20.34375 73.4375 
Q 25.25 74.21875 29.59375 74.21875 
Q 40.828125 74.21875 47.359375 69.109375 
Q 53.90625 64.015625 53.90625 55.328125 
Q 53.90625 49.265625 50.4375 45.09375 
Q 46.96875 40.921875 40.578125 39.3125 
" id="BitstreamVeraSans-Roman-33"/>
       <path d="M 33.015625 40.375 
Q 26.375 40.375 22.484375 35.828125 
Q 18.609375 31.296875 18.609375 23.390625 
Q 18.609375 15.53125 22.484375 10.953125 
Q 26.375 6.390625 33.015625 6.390625 
Q 39.65625 6.390625 43.53125 10.953125 
Q 47.40625 15.53125 47.40625 23.390625 
Q 47.40625 31.296875 43.53125 35.828125 
Q 39.65625 40.375 33.015625 40.375 
M 52.59375 71.296875 
L 52.59375 62.3125 
Q 48.875 64.0625 45.09375 64.984375 
Q 41.3125 65.921875 37.59375 65.921875 
Q 27.828125 65.921875 22.671875 59.328125 
Q 17.53125 52.734375 16.796875 39.40625 
Q 19.671875 43.65625 24.015625 45.921875 
Q 28.375 48.1875 33.59375 48.1875 
Q 44.578125 48.1875 50.953125 41.515625 
Q 57.328125 34.859375 57.328125 23.390625 
Q 57.328125 12.15625 50.6875 5.359375 
Q 44.046875 -1.421875 33.015625 -1.421875 
Q 20.359375 -1.421875 13.671875 8.265625 
Q 6.984375 17.96875 6.984375 36.375 
Q 6.984375 53.65625 15.1875 63.9375 
Q 23.390625 74.21875 37.203125 74.21875 
Q 40.921875 74.21875 44.703125 73.484375 
Q 48.484375 72.75 52.59375 71.296875 
" id="BitstreamVeraSans-Roman-36"/>
      </defs>
      <g transform="translate(166.406972403 165.949406701)scale(0.12 -0.12)">
       <use xlink:href="#BitstreamVeraSans-Roman-33"/>
       <use x="63.623046875" xlink:href="#BitstreamVeraSans-Roman-36"/>
      </g>
     </g>
    </g>
    <g id="xtick_3">
     <g id="line2d_8">
      <path clip-path="url(#p8a42260d0a)" d="M 291.439375 152.831282 
L 291.439375 7.2 
" style="fill:none;stroke:#000000;stroke-dasharray:1.000000,3.000000;stroke-dashoffset:0.0;stroke-width:0.5;"/>
     </g>
     <g id="line2d_9">
      <g>
       <use style="stroke:#000000;stroke-width:0.5;" x="291.439375" xlink:href="#mf555c45e94" y="152.831281701"/>
      </g>
     </g>
     <g id="line2d_10">
      <g>
       <use style="stroke:#000000;stroke-width:0.5;" x="291.439375" xlink:href="#mad4e2ae556" y="7.2"/>
      </g>
     </g>
     <g id="text_3">
      <!-- 72 -->
      <defs>
       <path d="M 19.1875 8.296875 
L 53.609375 8.296875 
L 53.609375 0 
L 7.328125 0 
L 7.328125 8.296875 
Q 12.9375 14.109375 22.625 23.890625 
Q 32.328125 33.6875 34.8125 36.53125 
Q 39.546875 41.84375 41.421875 45.53125 
Q 43.3125 49.21875 43.3125 52.78125 
Q 43.3125 58.59375 39.234375 62.25 
Q 35.15625 65.921875 28.609375 65.921875 
Q 23.96875 65.921875 18.8125 64.3125 
Q 13.671875 62.703125 7.8125 59.421875 
L 7.8125 69.390625 
Q 13.765625 71.78125 18.9375 73 
Q 24.125 74.21875 28.421875 74.21875 
Q 39.75 74.21875 46.484375 68.546875 
Q 53.21875 62.890625 53.21875 53.421875 
Q 53.21875 48.921875 51.53125 44.890625 
Q 49.859375 40.875 45.40625 35.40625 
Q 44.1875 33.984375 37.640625 27.21875 
Q 31.109375 20.453125 19.1875 8.296875 
" id="BitstreamVeraSans-Roman-32"/>
       <path d="M 8.203125 72.90625 
L 55.078125 72.90625 
L 55.078125 68.703125 
L 28.609375 0 
L 18.3125 0 
L 43.21875 64.59375 
L 8.203125 64.59375 
z
" id="BitstreamVeraSans-Roman-37"/>
      </defs>
      <g transform="translate(283.804375 165.949406701)scale(0.12 -0.12)">
       <use xlink:href="#BitstreamVeraSans-Roman-37"/>
       <use x="63.623046875" xlink:href="#BitstreamVeraSans-Roman-32"/>
      </g>
     </g>
    </g>
    <g id="xtick_4">
     <g id="line2d_11">
      <path clip-path="url(#p8a42260d0a)" d="M 408.836778 152.831282 
L 408.836778 7.2 
" style="fill:none;stroke:#000000;stroke-dasharray:1.000000,3.000000;stroke-dashoffset:0.0;stroke-width:0.5;"/>
     </g>
     <g id="line2d_12">
      <g>
       <use style="stroke:#000000;stroke-width:0.5;" x="408.836777597" xlink:href="#mf555c45e94" y="152.831281701"/>
      </g>
     </g>
     <g id="line2d_13">
      <g>
       <use style="stroke:#000000;stroke-width:0.5;" x="408.836777597" xlink:href="#mad4e2ae556" y="7.2"/>
      </g>
     </g>
     <g id="text_4">
      <!-- 108 -->
      <defs>
       <path d="M 31.78125 34.625 
Q 24.75 34.625 20.71875 30.859375 
Q 16.703125 27.09375 16.703125 20.515625 
Q 16.703125 13.921875 20.71875 10.15625 
Q 24.75 6.390625 31.78125 6.390625 
Q 38.8125 6.390625 42.859375 10.171875 
Q 46.921875 13.96875 46.921875 20.515625 
Q 46.921875 27.09375 42.890625 30.859375 
Q 38.875 34.625 31.78125 34.625 
M 21.921875 38.8125 
Q 15.578125 40.375 12.03125 44.71875 
Q 8.5 49.078125 8.5 55.328125 
Q 8.5 64.0625 14.71875 69.140625 
Q 20.953125 74.21875 31.78125 74.21875 
Q 42.671875 74.21875 48.875 69.140625 
Q 55.078125 64.0625 55.078125 55.328125 
Q 55.078125 49.078125 51.53125 44.71875 
Q 48 40.375 41.703125 38.8125 
Q 48.828125 37.15625 52.796875 32.3125 
Q 56.78125 27.484375 56.78125 20.515625 
Q 56.78125 9.90625 50.3125 4.234375 
Q 43.84375 -1.421875 31.78125 -1.421875 
Q 19.734375 -1.421875 13.25 4.234375 
Q 6.78125 9.90625 6.78125 20.515625 
Q 6.78125 27.484375 10.78125 32.3125 
Q 14.796875 37.15625 21.921875 38.8125 
M 18.3125 54.390625 
Q 18.3125 48.734375 21.84375 45.5625 
Q 25.390625 42.390625 31.78125 42.390625 
Q 38.140625 42.390625 41.71875 45.5625 
Q 45.3125 48.734375 45.3125 54.390625 
Q 45.3125 60.0625 41.71875 63.234375 
Q 38.140625 66.40625 31.78125 66.40625 
Q 25.390625 66.40625 21.84375 63.234375 
Q 18.3125 60.0625 18.3125 54.390625 
" id="BitstreamVeraSans-Roman-38"/>
       <path d="M 12.40625 8.296875 
L 28.515625 8.296875 
L 28.515625 63.921875 
L 10.984375 60.40625 
L 10.984375 69.390625 
L 28.421875 72.90625 
L 38.28125 72.90625 
L 38.28125 8.296875 
L 54.390625 8.296875 
L 54.390625 0 
L 12.40625 0 
z
" id="BitstreamVeraSans-Roman-31"/>
      </defs>
      <g transform="translate(397.384277597 165.949406701)scale(0.12 -0.12)">
       <use xlink:href="#BitstreamVeraSans-Roman-31"/>
       <use x="63.623046875" xlink:href="#BitstreamVeraSans-Roman-30"/>
       <use x="127.24609375" xlink:href="#BitstreamVeraSans-Roman-38"/>
      </g>
     </g>
    </g>
    <g id="xtick_5">
     <g id="line2d_14">
      <path clip-path="url(#p8a42260d0a)" d="M 526.23418 152.831282 
L 526.23418 7.2 
" style="fill:none;stroke:#000000;stroke-dasharray:1.000000,3.000000;stroke-dashoffset:0.0;stroke-width:0.5;"/>
     </g>
     <g id="line2d_15">
      <g>
       <use style="stroke:#000000;stroke-width:0.5;" x="526.234180195" xlink:href="#mf555c45e94" y="152.831281701"/>
      </g>
     </g>
     <g id="line2d_16">
      <g>
       <use style="stroke:#000000;stroke-width:0.5;" x="526.234180195" xlink:href="#mad4e2ae556" y="7.2"/>
      </g>
     </g>
     <g id="text_5">
      <!-- 144 -->
      <defs>
       <path d="M 37.796875 64.3125 
L 12.890625 25.390625 
L 37.796875 25.390625 
z
M 35.203125 72.90625 
L 47.609375 72.90625 
L 47.609375 25.390625 
L 58.015625 25.390625 
L 58.015625 17.1875 
L 47.609375 17.1875 
L 47.609375 0 
L 37.796875 0 
L 37.796875 17.1875 
L 4.890625 17.1875 
L 4.890625 26.703125 
z
" id="BitstreamVeraSans-Roman-34"/>
      </defs>
      <g transform="translate(514.781680195 165.949406701)scale(0.12 -0.12)">
       <use xlink:href="#BitstreamVeraSans-Roman-31"/>
       <use x="63.623046875" xlink:href="#BitstreamVeraSans-Roman-34"/>
       <use x="127.24609375" xlink:href="#BitstreamVeraSans-Roman-34"/>
      </g>
     </g>
    </g>
   </g>
   <g id="matplotlib.axis_2">
    <g id="ytick_1">
     <g id="line2d_17">
      <path clip-path="url(#p8a42260d0a)" d="M 40.339375 144.740655 
L 542.539375 144.740655 
" style="fill:none;stroke:#000000;stroke-dasharray:1.000000,3.000000;stroke-dashoffset:0.0;stroke-width:0.5;"/>
     </g>
     <g id="line2d_18">
      <defs>
       <path d="M 0 0 
L 4 0 
" id="m15827c927e" style="stroke:#000000;stroke-width:0.5;"/>
      </defs>
      <g>
       <use style="stroke:#000000;stroke-width:0.5;" x="40.339375" xlink:href="#m15827c927e" y="144.74065494"/>
      </g>
     </g>
     <g id="line2d_19">
      <defs>
       <path d="M 0 0 
L -4 0 
" id="m9f06dbcee6" style="stroke:#000000;stroke-width:0.5;"/>
      </defs>
      <g>
       <use style="stroke:#000000;stroke-width:0.5;" x="542.539375" xlink:href="#m9f06dbcee6" y="144.74065494"/>
      </g>
     </g>
     <g id="text_6">
      <!-- −1.0 -->
      <defs>
       <path d="M 10.59375 35.5 
L 73.1875 35.5 
L 73.1875 27.203125 
L 10.59375 27.203125 
z
" id="BitstreamVeraSans-Roman-2212"/>
       <path d="M 10.6875 12.40625 
L 21 12.40625 
L 21 0 
L 10.6875 0 
z
" id="BitstreamVeraSans-Roman-2e"/>
      </defs>
      <g transform="translate(7.2 148.05190494)scale(0.12 -0.12)">
       <use xlink:href="#BitstreamVeraSans-Roman-2212"/>
       <use x="83.7890625" xlink:href="#BitstreamVeraSans-Roman-31"/>
       <use x="147.412109375" xlink:href="#BitstreamVeraSans-Roman-2e"/>
       <use x="179.19921875" xlink:href="#BitstreamVeraSans-Roman-30"/>
      </g>
     </g>
    </g>
    <g id="ytick_2">
     <g id="line2d_20">
      <path clip-path="url(#p8a42260d0a)" d="M 40.339375 112.378148 
L 542.539375 112.378148 
" style="fill:none;stroke:#000000;stroke-dasharray:1.000000,3.000000;stroke-dashoffset:0.0;stroke-width:0.5;"/>
     </g>
     <g id="line2d_21">
      <g>
       <use style="stroke:#000000;stroke-width:0.5;" x="40.339375" xlink:href="#m15827c927e" y="112.378147895"/>
      </g>
     </g>
     <g id="line2d_22">
      <g>
       <use style="stroke:#000000;stroke-width:0.5;" x="542.539375" xlink:href="#m9f06dbcee6" y="112.378147895"/>
      </g>
     </g>
     <g id="text_7">
      <!-- −0.5 -->
      <defs>
       <path d="M 10.796875 72.90625 
L 49.515625 72.90625 
L 49.515625 64.59375 
L 19.828125 64.59375 
L 19.828125 46.734375 
Q 21.96875 47.46875 24.109375 47.828125 
Q 26.265625 48.1875 28.421875 48.1875 
Q 40.625 48.1875 47.75 41.5 
Q 54.890625 34.8125 54.890625 23.390625 
Q 54.890625 11.625 47.5625 5.09375 
Q 40.234375 -1.421875 26.90625 -1.421875 
Q 22.3125 -1.421875 17.546875 -0.640625 
Q 12.796875 0.140625 7.71875 1.703125 
L 7.71875 11.625 
Q 12.109375 9.234375 16.796875 8.0625 
Q 21.484375 6.890625 26.703125 6.890625 
Q 35.15625 6.890625 40.078125 11.328125 
Q 45.015625 15.765625 45.015625 23.390625 
Q 45.015625 31 40.078125 35.4375 
Q 35.15625 39.890625 26.703125 39.890625 
Q 22.75 39.890625 18.8125 39.015625 
Q 14.890625 38.140625 10.796875 36.28125 
z
" id="BitstreamVeraSans-Roman-35"/>
      </defs>
      <g transform="translate(7.2 115.689397895)scale(0.12 -0.12)">
       <use xlink:href="#BitstreamVeraSans-Roman-2212"/>
       <use x="83.7890625" xlink:href="#BitstreamVeraSans-Roman-30"/>
       <use x="147.412109375" xlink:href="#BitstreamVeraSans-Roman-2e"/>
       <use x="179.19921875" xlink:href="#BitstreamVeraSans-Roman-35"/>
      </g>
     </g>
    </g>
    <g id="ytick_3">
     <g id="line2d_23">
      <path clip-path="url(#p8a42260d0a)" d="M 40.339375 80.015641 
L 542.539375 80.015641 
" style="fill:none;stroke:#000000;stroke-dasharray:1.000000,3.000000;stroke-dashoffset:0.0;stroke-width:0.5;"/>
     </g>
     <g id="line2d_24">
      <g>
       <use style="stroke:#000000;stroke-width:0.5;" x="40.339375" xlink:href="#m15827c927e" y="80.0156408505"/>
      </g>
     </g>
     <g id="line2d_25">
      <g>
       <use style="stroke:#000000;stroke-width:0.5;" x="542.539375" xlink:href="#m9f06dbcee6" y="80.0156408505"/>
      </g>
     </g>
     <g id="text_8">
      <!-- 0.0 -->
      <g transform="translate(17.255625 83.3268908505)scale(0.12 -0.12)">
       <use xlink:href="#BitstreamVeraSans-Roman-30"/>
       <use x="63.623046875" xlink:href="#BitstreamVeraSans-Roman-2e"/>
       <use x="95.41015625" xlink:href="#BitstreamVeraSans-Roman-30"/>
      </g>
     </g>
    </g>
    <g id="ytick_4">
     <g id="line2d_26">
      <path clip-path="url(#p8a42260d0a)" d="M 40.339375 47.653134 
L 542.539375 47.653134 
" style="fill:none;stroke:#000000;stroke-dasharray:1.000000,3.000000;stroke-dashoffset:0.0;stroke-width:0.5;"/>
     </g>
     <g id="line2d_27">
      <g>
       <use style="stroke:#000000;stroke-width:0.5;" x="40.339375" xlink:href="#m15827c927e" y="47.6531338058"/>
      </g>
     </g>
     <g id="line2d_28">
      <g>
       <use style="stroke:#000000;stroke-width:0.5;" x="542.539375" xlink:href="#m9f06dbcee6" y="47.6531338058"/>
      </g>
     </g>
     <g id="text_9">
      <!-- 0.5 -->
      <g transform="translate(17.255625 50.9643838058)scale(0.12 -0.12)">
       <use xlink:href="#BitstreamVeraSans-Roman-30"/>
       <use x="63.623046875" xlink:href="#BitstreamVeraSans-Roman-2e"/>
       <use x="95.41015625" xlink:href="#BitstreamVeraSans-Roman-35"/>
      </g>
     </g>
    </g>
    <g id="ytick_5">
     <g id="line2d_29">
      <path clip-path="url(#p8a42260d0a)" d="M 40.339375 15.290627 
L 542.539375 15.290627 
" style="fill:none;stroke:#000000;stroke-dasharray:1.000000,3.000000;stroke-dashoffset:0.0;stroke-width:0.5;"/>
     </g>
     <g id="line2d_30">
      <g>
       <use style="stroke:#000000;stroke-width:0.5;" x="40.339375" xlink:href="#m15827c927e" y="15.2906267612"/>
      </g>
     </g>
     <g id="line2d_31">
      <g>
       <use style="stroke:#000000;stroke-width:0.5;" x="542.539375" xlink:href="#m9f06dbcee6" y="15.2906267612"/>
      </g>
     </g>
     <g id="text_10">
      <!-- 1.0 -->
      <g transform="translate(17.255625 18.6018767612)scale(0.12 -0.12)">
       <use xlink:href="#BitstreamVeraSans-Roman-31"/>
       <use x="63.623046875" xlink:href="#BitstreamVeraSans-Roman-2e"/>
       <use x="95.41015625" xlink:href="#BitstreamVeraSans-Roman-30"/>
      </g>
     </g>
    </g>
   </g>
  </g>
  <g id="axes_2">
   <g id="patch_7">
    <path d="M 40.339375 327.58882 
L 542.539375 327.58882 
L 542.539375 181.957538 
L 40.339375 181.957538 
L 40.339375 327.58882 
z
" style="fill:none;"/>
   </g>
   <g id="line2d_32">
    <path clip-path="url(#p6c80736aec)" d="M 40.339375 253.58826 
L 40.563571 253.505569 
L 40.787768 253.299462 
L 41.236161 253.438814 
L 41.684554 253.227484 
L 41.90875 253.346723 
L 42.132946 253.1999 
L 42.805536 253.301243 
L 43.029732 253.324638 
L 43.478125 253.534654 
L 43.926518 253.393447 
L 45.0475 253.625429 
L 45.944286 253.406179 
L 46.392679 253.308879 
L 48.18625 253.116406 
L 48.634643 253.225427 
L 49.083036 253.154518 
L 49.531429 253.047618 
L 49.755625 252.885799 
L 50.652411 252.886511 
L 51.100804 253.142291 
L 51.325 253.411803 
L 52.894375 254.07457 
L 53.118571 254.301657 
L 53.342768 254.233211 
L 54.015357 254.415762 
L 54.239554 254.394622 
L 54.687946 254.589108 
L 56.033125 254.602695 
L 56.481518 254.354567 
L 56.929911 254.565153 
L 57.378304 254.491486 
L 57.826696 254.557742 
L 58.050893 254.449002 
L 58.275089 254.541955 
L 59.844464 254.393014 
L 60.068661 254.43897 
L 60.292857 254.345471 
L 60.517054 254.087409 
L 61.189643 253.905867 
L 61.862232 254.106678 
L 62.759018 254.247568 
L 63.207411 254.427216 
L 63.655804 254.554586 
L 64.776786 254.652905 
L 65.000982 254.584586 
L 65.225179 254.735975 
L 66.794554 254.773396 
L 67.467143 254.614358 
L 67.915536 254.696293 
L 68.363929 254.863566 
L 69.484911 254.798519 
L 70.830089 255.072676 
L 74.417232 255.468907 
L 74.865625 255.531061 
L 75.089821 255.612682 
L 75.314018 255.537068 
L 75.762411 255.629336 
L 76.435 255.61443 
L 76.883393 255.853741 
L 77.331786 256.029818 
L 77.780179 255.875029 
L 78.228571 255.914597 
L 78.452768 255.838032 
L 78.901161 256.05295 
L 80.246339 255.795775 
L 80.694732 255.672076 
L 81.143125 255.763254 
L 81.367321 255.558892 
L 82.039911 255.800415 
L 82.7125 256.333987 
L 83.609286 256.48333 
L 83.833482 256.597834 
L 84.057679 256.886681 
L 84.506071 256.948572 
L 84.730268 257.005485 
L 84.954464 257.236039 
L 85.178661 257.153432 
L 85.627054 257.688064 
L 86.075446 257.913877 
L 86.523839 257.808757 
L 87.420625 257.689566 
L 87.644821 257.57965 
L 88.093214 257.575031 
L 88.765804 257.604386 
L 89.214196 257.392843 
L 89.438393 257.436725 
L 89.886786 257.358198 
L 92.12875 257.340398 
L 92.577143 257.310709 
L 93.025536 257.264014 
L 93.473929 257.005712 
L 93.922321 257.155651 
L 94.146518 256.987466 
L 94.594911 257.048677 
L 95.043304 256.688883 
L 95.491696 256.670447 
L 96.164286 256.600002 
L 96.388482 256.587431 
L 96.612679 256.694214 
L 97.285268 256.597949 
L 97.509464 256.690218 
L 97.733661 256.651301 
L 97.957857 257.001594 
L 101.320804 269.398174 
L 102.217589 272.01702 
L 104.907946 284.167629 
L 105.804732 288.442948 
L 106.925714 293.469277 
L 107.598304 296.526909 
L 110.737054 311.380412 
L 113.427411 323.77769 
L 113.651607 324.249153 
L 113.875804 324.442295 
L 114.1 323.657517 
L 116.341964 304.116574 
L 117.911339 290.954689 
L 121.050089 262.945233 
L 125.085625 225.746616 
L 129.345357 187.790576 
L 129.79375 185.375857 
L 130.017946 185.051541 
L 130.242143 185.944446 
L 134.501875 223.9635 
L 138.089018 257.006656 
L 140.779375 281.919708 
L 143.245536 304.724158 
L 144.366518 313.156067 
L 144.814911 316.564866 
L 145.711696 324.197553 
L 145.935893 325.03498 
L 146.160089 325.278031 
L 146.384286 324.302972 
L 147.729464 312.685189 
L 151.092411 282.61453 
L 153.334375 261.978285 
L 156.697321 231.085795 
L 161.853839 185.230858 
L 162.078036 184.334582 
L 162.302232 184.002669 
L 162.526429 184.801637 
L 164.992589 206.236794 
L 170.821696 259.114701 
L 177.995982 324.536966 
L 178.444375 326.132318 
L 178.668571 325.528819 
L 180.686339 307.41603 
L 183.376696 283.199169 
L 185.842857 260.518315 
L 189.43 227.744955 
L 191.223571 211.48554 
L 194.362321 184.561644 
L 194.586518 183.864106 
L 194.810714 184.661499 
L 210.056071 323.050985 
L 210.504464 325.717625 
L 210.728661 326.455026 
L 210.952857 325.404286 
L 212.746429 309.065391 
L 213.419018 303.686019 
L 215.660982 282.735503 
L 220.8175 235.633907 
L 221.938482 225.602594 
L 223.283661 213.736586 
L 226.646607 184.401193 
L 226.870804 183.692594 
L 227.095 184.745276 
L 229.112768 202.967703 
L 230.23375 212.973457 
L 232.251518 231.54611 
L 234.269286 249.603184 
L 237.408036 278.439171 
L 240.546786 306.505673 
L 242.564554 325.103492 
L 243.012946 326.821199 
L 243.237143 325.757361 
L 245.254911 307.204604 
L 258.930893 183.282418 
L 259.155089 182.578002 
L 259.379286 183.230399 
L 261.172857 192.318943 
L 262.293839 198.015123 
L 263.414821 203.625316 
L 265.208393 212.106504 
L 268.571339 227.222577 
L 271.0375 238.208632 
L 271.710089 241.075526 
L 274.848839 256.050839 
L 275.297232 256.843285 
L 275.521429 257.118396 
L 276.194018 259.769935 
L 276.418214 260.453554 
L 276.866607 262.091378 
L 277.987589 266.136851 
L 280.005357 274.205058 
L 283.816696 291.863899 
L 286.507054 304.125791 
L 288.973214 315.557671 
L 290.990982 325.385853 
L 291.439375 326.46891 
L 291.663571 325.661224 
L 293.457143 310.18617 
L 294.802321 299.061684 
L 295.923304 289.23236 
L 298.165268 269.004311 
L 304.218571 213.23284 
L 307.357321 184.377434 
L 307.581518 183.747361 
L 307.805714 184.611205 
L 310.047679 204.403571 
L 314.98 247.08415 
L 323.499464 325.574433 
L 323.723661 326.988098 
L 323.947857 326.983819 
L 326.414018 316.350814 
L 326.862411 314.694727 
L 327.535 311.844327 
L 330.001161 301.364348 
L 331.794732 292.904904 
L 338.296429 262.440941 
L 339.641607 255.7538 
L 340.09 252.678011 
L 341.883571 244.357408 
L 342.780357 240.099108 
L 345.919107 225.729638 
L 349.50625 209.701857 
L 350.178839 206.917533 
L 352.196607 198.301473 
L 354.214375 189.159917 
L 355.559554 182.694114 
L 355.78375 182.757933 
L 356.007946 183.160482 
L 356.456339 184.956709 
L 357.577321 190.445103 
L 358.698304 196.001877 
L 364.527411 223.444693 
L 366.545179 232.281372 
L 368.114554 238.96702 
L 370.132321 248.127972 
L 371.925893 255.701241 
L 372.374286 256.413317 
L 373.495268 260.993729 
L 376.409821 272.22156 
L 383.584107 305.389795 
L 385.826071 315.670015 
L 386.498661 318.610765 
L 387.843839 324.724375 
L 388.292232 326.859912 
L 388.516429 327.079109 
L 391.206786 315.766439 
L 392.327768 311.16558 
L 395.466518 296.807156 
L 396.139107 293.699599 
L 399.72625 277.715734 
L 403.761786 259.533995 
L 404.210179 256.988855 
L 404.882768 252.689098 
L 407.348929 241.122548 
L 410.487679 226.259376 
L 412.729643 216.025677 
L 414.074821 209.19428 
L 416.316786 198.998303 
L 419.903929 182.861202 
L 420.128125 182.105263 
L 420.352321 181.957538 
L 420.576518 182.413475 
L 421.024911 184.549576 
L 423.042679 194.109979 
L 427.750804 216.511432 
L 428.423393 219.421672 
L 434.925089 249.641182 
L 436.494464 255.164474 
L 436.942857 255.43191 
L 437.167054 255.871627 
L 437.615446 257.651085 
L 438.512232 261.286837 
L 439.633214 266.169816 
L 440.978393 272.116811 
L 442.099375 277.377355 
L 443.220357 282.496685 
L 444.341339 287.553887 
L 447.255893 300.778515 
L 448.376875 306.003431 
L 450.618839 316.284039 
L 451.291429 319.283069 
L 453.085 327.58882 
L 453.309196 327.220891 
L 453.981786 324.243362 
L 456.22375 314.411651 
L 458.465714 303.738097 
L 468.77875 256.426488 
L 469.675536 250.893635 
L 474.383661 230.049565 
L 475.504643 225.000713 
L 476.401429 221.035071 
L 477.522411 215.888222 
L 479.315982 207.616518 
L 480.212768 203.376096 
L 483.575714 188.666743 
L 484.248304 185.922728 
L 484.696696 183.814141 
L 484.920893 183.783612 
L 485.145089 183.915815 
L 485.817679 187.007685 
L 498.821071 245.650193 
L 500.16625 250.541482 
L 500.390446 251.23232 
L 500.838839 253.297621 
L 501.511429 254.27688 
L 502.184018 257.003203 
L 503.080804 260.805822 
L 505.995357 273.701597 
L 506.44375 275.68145 
L 508.685714 286.089779 
L 512.497054 303.083929 
L 513.618036 308.337502 
L 514.290625 311.419584 
L 516.980982 324.94292 
L 517.429375 326.289057 
L 517.653571 325.975572 
L 519.222946 312.073217 
L 528.639196 227.660034 
L 530.432768 211.760365 
L 533.123125 187.261366 
L 533.571518 184.982189 
L 533.795714 185.347124 
L 536.261875 207.995593 
L 540.297411 245.504565 
L 542.539375 265.109486 
L 542.539375 265.109486 
" style="fill:none;stroke:#0000ff;stroke-linecap:square;"/>
   </g>
   <g id="patch_8">
    <path d="M 40.339375 181.957538 
L 542.539375 181.957538 
" style="fill:none;stroke:#000000;stroke-linecap:square;stroke-linejoin:miter;"/>
   </g>
   <g id="patch_9">
    <path d="M 542.539375 327.58882 
L 542.539375 181.957538 
" style="fill:none;stroke:#000000;stroke-linecap:square;stroke-linejoin:miter;"/>
   </g>
   <g id="patch_10">
    <path d="M 40.339375 327.58882 
L 542.539375 327.58882 
" style="fill:none;stroke:#000000;stroke-linecap:square;stroke-linejoin:miter;"/>
   </g>
   <g id="patch_11">
    <path d="M 40.339375 327.58882 
L 40.339375 181.957538 
" style="fill:none;stroke:#000000;stroke-linecap:square;stroke-linejoin:miter;"/>
   </g>
   <g id="matplotlib.axis_3">
    <g id="xtick_6">
     <g id="line2d_33">
      <path clip-path="url(#p6c80736aec)" d="M 40.339375 327.58882 
L 40.339375 181.957538 
" style="fill:none;stroke:#000000;stroke-dasharray:1.000000,3.000000;stroke-dashoffset:0.0;stroke-width:0.5;"/>
     </g>
     <g id="line2d_34">
      <g>
       <use style="stroke:#000000;stroke-width:0.5;" x="40.339375" xlink:href="#mf555c45e94" y="327.588819742"/>
      </g>
     </g>
     <g id="line2d_35">
      <g>
       <use style="stroke:#000000;stroke-width:0.5;" x="40.339375" xlink:href="#mad4e2ae556" y="181.957538041"/>
      </g>
     </g>
     <g id="text_11">
      <!-- 0 -->
      <g transform="translate(36.521875 340.706944742)scale(0.12 -0.12)">
       <use xlink:href="#BitstreamVeraSans-Roman-30"/>
      </g>
     </g>
    </g>
    <g id="xtick_7">
     <g id="line2d_36">
      <path clip-path="url(#p6c80736aec)" d="M 152.437589 327.58882 
L 152.437589 181.957538 
" style="fill:none;stroke:#000000;stroke-dasharray:1.000000,3.000000;stroke-dashoffset:0.0;stroke-width:0.5;"/>
     </g>
     <g id="line2d_37">
      <g>
       <use style="stroke:#000000;stroke-width:0.5;" x="152.437589286" xlink:href="#mf555c45e94" y="327.588819742"/>
      </g>
     </g>
     <g id="line2d_38">
      <g>
       <use style="stroke:#000000;stroke-width:0.5;" x="152.437589286" xlink:href="#mad4e2ae556" y="181.957538041"/>
      </g>
     </g>
     <g id="text_12">
      <!-- 500 -->
      <g transform="translate(140.985089286 340.706944742)scale(0.12 -0.12)">
       <use xlink:href="#BitstreamVeraSans-Roman-35"/>
       <use x="63.623046875" xlink:href="#BitstreamVeraSans-Roman-30"/>
       <use x="127.24609375" xlink:href="#BitstreamVeraSans-Roman-30"/>
      </g>
     </g>
    </g>
    <g id="xtick_8">
     <g id="line2d_39">
      <path clip-path="url(#p6c80736aec)" d="M 264.535804 327.58882 
L 264.535804 181.957538 
" style="fill:none;stroke:#000000;stroke-dasharray:1.000000,3.000000;stroke-dashoffset:0.0;stroke-width:0.5;"/>
     </g>
     <g id="line2d_40">
      <g>
       <use style="stroke:#000000;stroke-width:0.5;" x="264.535803571" xlink:href="#mf555c45e94" y="327.588819742"/>
      </g>
     </g>
     <g id="line2d_41">
      <g>
       <use style="stroke:#000000;stroke-width:0.5;" x="264.535803571" xlink:href="#mad4e2ae556" y="181.957538041"/>
      </g>
     </g>
     <g id="text_13">
      <!-- 1000 -->
      <g transform="translate(249.265803571 340.706944742)scale(0.12 -0.12)">
       <use xlink:href="#BitstreamVeraSans-Roman-31"/>
       <use x="63.623046875" xlink:href="#BitstreamVeraSans-Roman-30"/>
       <use x="127.24609375" xlink:href="#BitstreamVeraSans-Roman-30"/>
       <use x="190.869140625" xlink:href="#BitstreamVeraSans-Roman-30"/>
      </g>
     </g>
    </g>
    <g id="xtick_9">
     <g id="line2d_42">
      <path clip-path="url(#p6c80736aec)" d="M 376.634018 327.58882 
L 376.634018 181.957538 
" style="fill:none;stroke:#000000;stroke-dasharray:1.000000,3.000000;stroke-dashoffset:0.0;stroke-width:0.5;"/>
     </g>
     <g id="line2d_43">
      <g>
       <use style="stroke:#000000;stroke-width:0.5;" x="376.634017857" xlink:href="#mf555c45e94" y="327.588819742"/>
      </g>
     </g>
     <g id="line2d_44">
      <g>
       <use style="stroke:#000000;stroke-width:0.5;" x="376.634017857" xlink:href="#mad4e2ae556" y="181.957538041"/>
      </g>
     </g>
     <g id="text_14">
      <!-- 1500 -->
      <g transform="translate(361.364017857 340.706944742)scale(0.12 -0.12)">
       <use xlink:href="#BitstreamVeraSans-Roman-31"/>
       <use x="63.623046875" xlink:href="#BitstreamVeraSans-Roman-35"/>
       <use x="127.24609375" xlink:href="#BitstreamVeraSans-Roman-30"/>
       <use x="190.869140625" xlink:href="#BitstreamVeraSans-Roman-30"/>
      </g>
     </g>
    </g>
    <g id="xtick_10">
     <g id="line2d_45">
      <path clip-path="url(#p6c80736aec)" d="M 488.732232 327.58882 
L 488.732232 181.957538 
" style="fill:none;stroke:#000000;stroke-dasharray:1.000000,3.000000;stroke-dashoffset:0.0;stroke-width:0.5;"/>
     </g>
     <g id="line2d_46">
      <g>
       <use style="stroke:#000000;stroke-width:0.5;" x="488.732232143" xlink:href="#mf555c45e94" y="327.588819742"/>
      </g>
     </g>
     <g id="line2d_47">
      <g>
       <use style="stroke:#000000;stroke-width:0.5;" x="488.732232143" xlink:href="#mad4e2ae556" y="181.957538041"/>
      </g>
     </g>
     <g id="text_15">
      <!-- 2000 -->
      <g transform="translate(473.462232143 340.706944742)scale(0.12 -0.12)">
       <use xlink:href="#BitstreamVeraSans-Roman-32"/>
       <use x="63.623046875" xlink:href="#BitstreamVeraSans-Roman-30"/>
       <use x="127.24609375" xlink:href="#BitstreamVeraSans-Roman-30"/>
       <use x="190.869140625" xlink:href="#BitstreamVeraSans-Roman-30"/>
      </g>
     </g>
    </g>
   </g>
   <g id="matplotlib.axis_4">
    <g id="ytick_6">
     <g id="line2d_48">
      <path clip-path="url(#p6c80736aec)" d="M 40.339375 309.480908 
L 542.539375 309.480908 
" style="fill:none;stroke:#000000;stroke-dasharray:1.000000,3.000000;stroke-dashoffset:0.0;stroke-width:0.5;"/>
     </g>
     <g id="line2d_49">
      <g>
       <use style="stroke:#000000;stroke-width:0.5;" x="40.339375" xlink:href="#m15827c927e" y="309.48090823"/>
      </g>
     </g>
     <g id="line2d_50">
      <g>
       <use style="stroke:#000000;stroke-width:0.5;" x="542.539375" xlink:href="#m9f06dbcee6" y="309.48090823"/>
      </g>
     </g>
     <g id="text_16">
      <!-- −40 -->
      <g transform="translate(11.01375 312.79215823)scale(0.12 -0.12)">
       <use xlink:href="#BitstreamVeraSans-Roman-2212"/>
       <use x="83.7890625" xlink:href="#BitstreamVeraSans-Roman-34"/>
       <use x="147.412109375" xlink:href="#BitstreamVeraSans-Roman-30"/>
      </g>
     </g>
    </g>
    <g id="ytick_7">
     <g id="line2d_51">
      <path clip-path="url(#p6c80736aec)" d="M 40.339375 282.273711 
L 542.539375 282.273711 
" style="fill:none;stroke:#000000;stroke-dasharray:1.000000,3.000000;stroke-dashoffset:0.0;stroke-width:0.5;"/>
     </g>
     <g id="line2d_52">
      <g>
       <use style="stroke:#000000;stroke-width:0.5;" x="40.339375" xlink:href="#m15827c927e" y="282.273711202"/>
      </g>
     </g>
     <g id="line2d_53">
      <g>
       <use style="stroke:#000000;stroke-width:0.5;" x="542.539375" xlink:href="#m9f06dbcee6" y="282.273711202"/>
      </g>
     </g>
     <g id="text_17">
      <!-- −20 -->
      <g transform="translate(11.01375 285.584961202)scale(0.12 -0.12)">
       <use xlink:href="#BitstreamVeraSans-Roman-2212"/>
       <use x="83.7890625" xlink:href="#BitstreamVeraSans-Roman-32"/>
       <use x="147.412109375" xlink:href="#BitstreamVeraSans-Roman-30"/>
      </g>
     </g>
    </g>
    <g id="ytick_8">
     <g id="line2d_54">
      <path clip-path="url(#p6c80736aec)" d="M 40.339375 255.066514 
L 542.539375 255.066514 
" style="fill:none;stroke:#000000;stroke-dasharray:1.000000,3.000000;stroke-dashoffset:0.0;stroke-width:0.5;"/>
     </g>
     <g id="line2d_55">
      <g>
       <use style="stroke:#000000;stroke-width:0.5;" x="40.339375" xlink:href="#m15827c927e" y="255.066514174"/>
      </g>
     </g>
     <g id="line2d_56">
      <g>
       <use style="stroke:#000000;stroke-width:0.5;" x="542.539375" xlink:href="#m9f06dbcee6" y="255.066514174"/>
      </g>
     </g>
     <g id="text_18">
      <!-- 0 -->
      <g transform="translate(28.704375 258.377764174)scale(0.12 -0.12)">
       <use xlink:href="#BitstreamVeraSans-Roman-30"/>
      </g>
     </g>
    </g>
    <g id="ytick_9">
     <g id="line2d_57">
      <path clip-path="url(#p6c80736aec)" d="M 40.339375 227.859317 
L 542.539375 227.859317 
" style="fill:none;stroke:#000000;stroke-dasharray:1.000000,3.000000;stroke-dashoffset:0.0;stroke-width:0.5;"/>
     </g>
     <g id="line2d_58">
      <g>
       <use style="stroke:#000000;stroke-width:0.5;" x="40.339375" xlink:href="#m15827c927e" y="227.859317146"/>
      </g>
     </g>
     <g id="line2d_59">
      <g>
       <use style="stroke:#000000;stroke-width:0.5;" x="542.539375" xlink:href="#m9f06dbcee6" y="227.859317146"/>
      </g>
     </g>
     <g id="text_19">
      <!-- 20 -->
      <g transform="translate(21.069375 231.170567146)scale(0.12 -0.12)">
       <use xlink:href="#BitstreamVeraSans-Roman-32"/>
       <use x="63.623046875" xlink:href="#BitstreamVeraSans-Roman-30"/>
      </g>
     </g>
    </g>
    <g id="ytick_10">
     <g id="line2d_60">
      <path clip-path="url(#p6c80736aec)" d="M 40.339375 200.65212 
L 542.539375 200.65212 
" style="fill:none;stroke:#000000;stroke-dasharray:1.000000,3.000000;stroke-dashoffset:0.0;stroke-width:0.5;"/>
     </g>
     <g id="line2d_61">
      <g>
       <use style="stroke:#000000;stroke-width:0.5;" x="40.339375" xlink:href="#m15827c927e" y="200.652120117"/>
      </g>
     </g>
     <g id="line2d_62">
      <g>
       <use style="stroke:#000000;stroke-width:0.5;" x="542.539375" xlink:href="#m9f06dbcee6" y="200.652120117"/>
      </g>
     </g>
     <g id="text_20">
      <!-- 40 -->
      <g transform="translate(21.069375 203.963370117)scale(0.12 -0.12)">
       <use xlink:href="#BitstreamVeraSans-Roman-34"/>
       <use x="63.623046875" xlink:href="#BitstreamVeraSans-Roman-30"/>
      </g>
     </g>
    </g>
   </g>
  </g>
 </g>
 <defs>
  <clipPath id="p6c80736aec">
   <rect height="145.631281701" width="502.2" x="40.339375" y="181.957538041"/>
  </clipPath>
  <clipPath id="p8a42260d0a">
   <rect height="145.631281701" width="502.2" x="40.339375" y="7.2"/>
  </clipPath>
 </defs>
</svg>
