<?xml version="1.0" encoding="utf-8" standalone="no"?>
<!DOCTYPE svg PUBLIC "-//W3C//DTD SVG 1.1//EN"
  "http://www.w3.org/Graphics/SVG/1.1/DTD/svg11.dtd">
<!-- Created with matplotlib (http://matplotlib.org/) -->
<svg height="190pt" version="1.1" viewBox="0 0 549 190" width="549pt" xmlns="http://www.w3.org/2000/svg" xmlns:xlink="http://www.w3.org/1999/xlink">
 <defs>
  <style type="text/css">
*{stroke-linecap:butt;stroke-linejoin:round;stroke-miterlimit:100000;}
  </style>
 </defs>
 <g id="figure_1">
  <g id="patch_1">
   <path d="M 0 190.20816 
L 549.739375 190.20816 
L 549.739375 0 
L 0 0 
L 0 190.20816 
z
" style="fill:none;"/>
  </g>
  <g id="axes_1">
   <g id="patch_2">
    <path d="M 40.339375 167.39441 
L 542.539375 167.39441 
L 542.539375 7.2 
L 40.339375 7.2 
L 40.339375 167.39441 
z
" style="fill:none;"/>
   </g>
   <g id="line2d_1">
    <path clip-path="url(#pea842112d3)" d="M 40.339375 86.01577 
L 40.665197 85.847547 
L 40.773804 85.881886 
L 40.991019 85.703354 
L 41.099626 85.805136 
L 41.31684 85.680134 
L 41.642662 85.785757 
L 41.859877 85.970142 
L 42.077091 85.845773 
L 42.620128 86.052668 
L 44.140629 85.602591 
L 44.466451 85.713058 
L 45.118095 85.364376 
L 45.335309 85.396201 
L 45.552524 85.62006 
L 45.769738 85.933477 
L 45.878346 85.930334 
L 46.529989 86.620979 
L 46.638596 86.560734 
L 46.964418 86.723673 
L 47.073026 86.705179 
L 47.398847 86.884385 
L 47.941884 86.886156 
L 48.159098 86.670854 
L 48.376313 86.85735 
L 48.593527 86.791678 
L 48.810742 86.843104 
L 48.919349 86.750614 
L 49.136564 86.797892 
L 49.462385 86.783871 
L 49.6796 86.638278 
L 49.896814 86.740214 
L 50.005422 86.659275 
L 50.222636 86.371034 
L 50.439851 86.277941 
L 50.982887 86.546375 
L 51.308709 86.613882 
L 51.634531 86.850843 
L 52.177567 86.933529 
L 52.286174 86.875317 
L 52.503389 87.019247 
L 52.720603 87.067112 
L 52.937818 87.100063 
L 53.589462 86.909378 
L 54.023891 87.103833 
L 54.45832 87.075103 
L 55.327178 87.376258 
L 56.087429 87.52036 
L 56.630465 87.639122 
L 56.739072 87.722325 
L 56.956287 87.652794 
L 57.390716 87.778227 
L 57.825145 87.769839 
L 58.150967 88.067843 
L 58.259574 88.130498 
L 58.476788 87.992916 
L 58.694003 88.024598 
L 58.80261 87.955589 
L 59.019825 88.144208 
L 60.323112 87.764983 
L 60.540327 87.935326 
L 60.866148 88.406903 
L 61.300577 88.537003 
L 62.603865 89.69539 
L 63.146901 89.600692 
L 63.364115 89.551211 
L 63.689937 89.517821 
L 63.798545 89.527137 
L 64.015759 89.342435 
L 64.232974 89.313113 
L 65.862083 89.247748 
L 66.079297 89.018109 
L 66.296512 89.148268 
L 66.513726 89.022177 
L 66.622333 89.053646 
L 66.839548 88.737734 
L 67.16537 88.674841 
L 67.491192 88.645779 
L 67.708406 88.703381 
L 67.925621 88.654022 
L 68.251442 88.99703 
L 70.097766 100.823083 
L 70.640802 104.767956 
L 75.853951 147.600903 
L 75.962558 147.771669 
L 76.071166 147.086788 
L 78.026096 116.886205 
L 78.894955 102.893959 
L 81.284314 63.490092 
L 83.565067 27.297362 
L 83.782282 26.244946 
L 83.890889 27.026383 
L 87.257714 81.728317 
L 90.298718 132.185626 
L 90.950361 140.922012 
L 91.493397 148.310789 
L 91.602005 148.522122 
L 91.819219 146.092523 
L 97.35819 55.456142 
L 98.335655 39.804084 
L 99.313121 25.630543 
L 99.421728 25.341854 
L 99.530335 26.042614 
L 101.593873 58.770837 
L 104.852091 112.34732 
L 107.241451 149.255245 
L 107.350058 148.725824 
L 109.522204 113.681453 
L 112.780422 59.803404 
L 115.061174 25.212979 
L 115.169782 25.907923 
L 122.663683 147.977924 
L 122.880897 149.538564 
L 122.989505 148.625579 
L 124.401399 125.986182 
L 126.030508 99.097938 
L 129.071512 49.540738 
L 130.700621 25.080226 
L 130.809228 25.99436 
L 133.198588 65.080538 
L 135.587948 104.122209 
L 136.782628 123.242356 
L 138.520344 149.845116 
L 138.628951 148.921964 
L 140.801096 113.028701 
L 146.122853 25.645654 
L 146.340067 24.108587 
L 146.557282 25.614269 
L 147.534747 34.623682 
L 148.403605 42.450919 
L 149.706892 53.160375 
L 154.15979 88.836285 
L 154.268397 89.078371 
L 154.811434 92.899673 
L 155.245863 95.318462 
L 156.983579 108.291393 
L 159.047117 125.721106 
L 160.241797 135.594542 
L 161.979513 149.553515 
L 162.088121 148.847803 
L 163.391408 128.965432 
L 164.260266 115.402893 
L 169.364808 30.553635 
L 169.690629 25.672237 
L 169.799237 25.124778 
L 169.907844 25.877863 
L 171.536953 51.348751 
L 172.948847 72.986373 
L 175.120993 109.025601 
L 177.727567 149.991479 
L 179.465283 136.794895 
L 180.985785 124.895486 
L 184.895647 91.933701 
L 185.330076 87.903353 
L 185.655897 84.353444 
L 188.696901 59.02852 
L 191.846512 34.346174 
L 193.041192 24.195815 
L 193.149799 24.249829 
L 193.258406 24.601634 
L 193.692835 28.09237 
L 199.123199 73.269843 
L 200.6437 85.705781 
L 200.969522 87.858817 
L 201.186737 88.481227 
L 201.946987 94.114356 
L 202.055595 94.51651 
L 202.924453 100.725779 
L 203.250275 103.153061 
L 207.485958 138.315321 
L 209.00646 150.076119 
L 216.500361 90.211615 
L 217.260612 82.636441 
L 224.320084 23.687177 
L 224.428692 23.562725 
L 224.645906 24.731243 
L 225.514764 32.380056 
L 227.252481 47.223489 
L 230.184877 71.769516 
L 230.945128 77.995592 
L 232.0312 86.345117 
L 232.248415 87.364722 
L 232.465629 87.598071 
L 232.574237 87.979366 
L 233.22588 92.704917 
L 235.398026 110.370082 
L 237.570171 127.986254 
L 239.19928 141.444128 
L 240.285353 150.536559 
L 240.39396 150.219627 
L 241.154211 144.011262 
L 247.996468 87.119356 
L 248.32229 83.658554 
L 252.666581 48.668187 
L 253.752654 39.60938 
L 255.707584 25.139318 
L 255.816192 25.251072 
L 256.68505 32.302788 
L 262.767057 81.60957 
L 263.201486 83.967662 
L 263.527308 86.028135 
L 263.853129 87.354183 
L 267.328562 115.218304 
L 268.849064 127.500173 
L 269.500707 132.801966 
L 271.455638 149.380948 
L 271.564245 149.11241 
L 272.867532 127.900829 
L 277.537645 52.966358 
L 279.275361 26.205775 
L 279.383968 26.519524 
L 281.773328 66.121934 
L 283.076615 87.514053 
L 284.379903 107.390326 
L 286.769263 145.654554 
L 287.095084 149.967265 
L 287.203692 150.303607 
L 288.506979 139.681729 
L 294.914808 87.127076 
L 295.240629 84.04761 
L 297.304167 66.352038 
L 298.39024 57.184393 
L 302.625923 23.219441 
L 302.734531 23.342227 
L 302.951745 25.963227 
L 310.554254 150.24345 
L 310.662861 150.062933 
L 311.640327 134.352803 
L 313.812472 98.861536 
L 318.373977 24.497365 
L 318.482584 24.398019 
L 318.917013 27.67874 
L 319.785872 34.633469 
L 322.826875 59.913207 
L 323.587126 65.772137 
L 325.542057 82.565919 
L 326.1937 87.457097 
L 326.302308 87.832216 
L 330.320776 120.162722 
L 334.013423 149.661004 
L 334.122031 149.309412 
L 334.773674 138.737196 
L 339.117965 68.069927 
L 341.724539 26.874831 
L 341.833147 26.274758 
L 341.941754 26.472665 
L 342.376183 33.366782 
L 347.806546 120.986031 
L 349.001226 139.222526 
L 349.544263 147.21614 
L 349.65287 147.808636 
L 349.761477 147.627043 
L 350.195906 140.816834 
L 356.060699 45.764841 
L 356.929557 31.904503 
L 357.363986 26.43663 
L 357.472593 25.830968 
L 357.5812 26.228002 
L 357.907022 31.289216 
L 365.292316 149.12236 
L 365.400923 148.650369 
L 365.618138 145.220232 
L 369.636607 79.471918 
L 373.112039 24.79064 
L 373.220647 25.210683 
L 373.763683 33.879164 
L 380.931763 150.017634 
L 381.04037 149.546833 
L 382.886693 119.430761 
L 388.208449 32.808447 
L 388.642878 26.985904 
L 388.751486 26.637045 
L 388.860093 27.084294 
L 389.837558 43.366401 
L 392.444133 85.835114 
L 396.13678 143.635857 
L 396.679816 149.155694 
L 396.897031 147.435486 
L 397.33146 143.514355 
L 403.630681 93.499097 
L 404.173718 89.613932 
L 404.716754 83.806887 
L 405.042576 81.375652 
L 409.386866 45.513638 
L 411.124583 31.276977 
L 411.667619 26.974453 
L 411.993441 24.347067 
L 412.102048 24.282581 
L 412.210655 24.379894 
L 412.42787 27.215342 
L 416.229124 89.209936 
L 418.618484 129.323099 
L 419.921771 149.733547 
L 420.030378 150.421943 
L 420.138986 149.908063 
L 421.55088 126.43285 
L 425.243527 65.79905 
L 427.741494 24.156618 
L 427.850102 23.574706 
L 427.958709 23.879263 
L 428.501745 28.357013 
L 430.130854 41.484505 
L 431.977178 56.643204 
L 434.149323 75.246086 
L 435.561218 86.856962 
L 435.778432 87.42274 
L 438.928043 114.322421 
L 440.774366 129.439217 
L 441.751832 137.238331 
L 443.489548 150.503043 
L 443.598155 149.979026 
L 448.59409 67.153996 
L 451.309271 26.487112 
L 451.417878 27.148248 
L 453.264202 57.714325 
L 455.870776 100.885882 
L 456.956849 117.256404 
L 458.694565 143.075489 
L 459.128994 148.494457 
L 459.237602 147.67405 
L 460.540889 126.234053 
L 462.387212 96.156082 
L 466.514288 29.159434 
L 466.948718 23.738578 
L 467.057325 24.269979 
L 470.749972 84.760516 
L 474.877048 151.586879 
L 475.20287 149.276537 
L 476.940586 134.992613 
L 477.483622 130.796206 
L 479.54716 113.846555 
L 480.524626 105.596415 
L 481.502091 97.373055 
L 482.262342 91.01 
L 482.588164 87.152311 
L 482.913986 83.707092 
L 483.565629 78.336393 
L 487.258276 48.201099 
L 488.127135 41.353465 
L 488.995993 34.402608 
L 490.190673 24.248748 
L 490.29928 24.084415 
L 490.407887 24.41367 
L 490.733709 29.29506 
L 493.88332 80.35471 
L 496.924323 130.107325 
L 498.119003 149.36161 
L 498.22761 149.962012 
L 498.336218 149.18951 
L 500.61697 112.474527 
L 502.789115 77.534722 
L 505.938726 26.398324 
L 506.047333 25.715955 
L 506.155941 26.097136 
L 508.110872 41.239478 
L 509.305551 49.055878 
L 512.780984 77.677991 
L 515.387558 97.695705 
L 521.469565 148.924993 
L 521.68678 149.738676 
L 521.795387 149.398594 
L 523.533103 121.10166 
L 529.506503 24.693036 
L 529.61511 25.140276 
L 531.570041 57.836388 
L 532.981936 81.050502 
L 533.959401 96.632518 
L 537.109012 148.682147 
L 537.326226 150.428268 
L 537.434833 149.874983 
L 542.539375 65.769007 
L 542.539375 65.769007 
" style="fill:none;stroke:#0000ff;stroke-linecap:square;"/>
   </g>
   <g id="line2d_2">
    <path clip-path="url(#pea842112d3)" d="M 40.339375 23.219441 
L 54.784141 23.219441 
L 55.001356 151.374969 
L 79.763813 151.374969 
L 79.981027 23.219441 
L 87.583536 23.219441 
L 87.80075 151.374969 
L 95.403259 151.374969 
L 95.620474 23.219441 
L 103.222982 23.219441 
L 103.440197 151.374969 
L 111.042705 151.374969 
L 111.25992 23.219441 
L 118.862429 23.219441 
L 119.079643 151.374969 
L 126.682152 151.374969 
L 126.899366 23.219441 
L 134.501875 23.219441 
L 134.71909 151.374969 
L 142.321598 151.374969 
L 142.538813 23.219441 
L 153.833968 23.219441 
L 154.051183 151.374969 
L 165.889375 151.374969 
L 166.10659 23.219441 
L 173.709098 23.219441 
L 173.926313 151.374969 
L 185.330076 151.374969 
L 185.54729 23.219441 
L 200.752308 23.219441 
L 200.969522 151.374969 
L 216.717576 151.374969 
L 216.93479 23.219441 
L 232.139808 23.219441 
L 232.357022 151.374969 
L 247.887861 151.374969 
L 248.105076 23.219441 
L 263.744522 23.219441 
L 263.961737 151.374969 
L 275.256892 151.374969 
L 275.474107 23.219441 
L 282.968008 23.219441 
L 283.185223 151.374969 
L 294.8062 151.374969 
L 295.023415 23.219441 
L 306.644392 23.219441 
L 306.861607 151.374969 
L 314.464115 151.374969 
L 314.68133 23.219441 
L 326.085093 23.219441 
L 326.302308 151.374969 
L 337.923285 151.374969 
L 338.1405 23.219441 
L 345.634401 23.219441 
L 345.851615 151.374969 
L 353.345517 151.374969 
L 353.562731 23.219441 
L 361.273847 23.219441 
L 361.491062 151.374969 
L 369.093571 151.374969 
L 369.310785 23.219441 
L 376.913294 23.219441 
L 377.130508 151.374969 
L 384.733017 151.374969 
L 384.950231 23.219441 
L 392.444133 23.219441 
L 392.661347 151.374969 
L 404.282325 151.374969 
L 404.499539 23.219441 
L 416.01191 23.219441 
L 416.229124 151.374969 
L 423.94024 151.374969 
L 424.157455 23.219441 
L 435.669825 23.219441 
L 435.887039 151.374969 
L 447.290802 151.374969 
L 447.508017 23.219441 
L 455.001918 23.219441 
L 455.219133 151.374969 
L 462.821641 151.374969 
L 463.038856 23.219441 
L 470.858579 23.219441 
L 471.075794 151.374969 
L 482.479557 151.374969 
L 482.696771 23.219441 
L 494.209141 23.219441 
L 494.426356 151.374969 
L 502.137472 151.374969 
L 502.354686 23.219441 
L 514.084271 23.219441 
L 514.301486 151.374969 
L 525.488034 151.374969 
L 525.705249 23.219441 
L 533.307757 23.219441 
L 533.524972 151.374969 
L 541.127481 151.374969 
L 541.344695 23.219441 
L 542.539375 23.219441 
L 542.539375 23.219441 
" style="fill:none;stroke:#ff0000;stroke-linecap:square;"/>
   </g>
   <g id="patch_3">
    <path d="M 40.339375 7.2 
L 542.539375 7.2 
" style="fill:none;stroke:#000000;stroke-linecap:square;stroke-linejoin:miter;"/>
   </g>
   <g id="patch_4">
    <path d="M 542.539375 167.39441 
L 542.539375 7.2 
" style="fill:none;stroke:#000000;stroke-linecap:square;stroke-linejoin:miter;"/>
   </g>
   <g id="patch_5">
    <path d="M 40.339375 167.39441 
L 542.539375 167.39441 
" style="fill:none;stroke:#000000;stroke-linecap:square;stroke-linejoin:miter;"/>
   </g>
   <g id="patch_6">
    <path d="M 40.339375 167.39441 
L 40.339375 7.2 
" style="fill:none;stroke:#000000;stroke-linecap:square;stroke-linejoin:miter;"/>
   </g>
   <g id="matplotlib.axis_1">
    <g id="xtick_1">
     <g id="line2d_3">
      <path clip-path="url(#pea842112d3)" d="M 40.339375 167.39441 
L 40.339375 7.2 
" style="fill:none;stroke:#000000;stroke-dasharray:1.000000,3.000000;stroke-dashoffset:0.0;stroke-width:0.5;"/>
     </g>
     <g id="line2d_4">
      <defs>
       <path d="M 0 0 
L 0 -4 
" id="m06076b4163" style="stroke:#000000;stroke-width:0.5;"/>
      </defs>
      <g>
       <use style="stroke:#000000;stroke-width:0.5;" x="40.339375" xlink:href="#m06076b4163" y="167.394409871"/>
      </g>
     </g>
     <g id="line2d_5">
      <defs>
       <path d="M 0 0 
L 0 4 
" id="m45fa3c0eab" style="stroke:#000000;stroke-width:0.5;"/>
      </defs>
      <g>
       <use style="stroke:#000000;stroke-width:0.5;" x="40.339375" xlink:href="#m45fa3c0eab" y="7.2"/>
      </g>
     </g>
     <g id="text_1">
      <!-- 0 -->
      <defs>
       <path d="M 31.78125 66.40625 
Q 24.171875 66.40625 20.328125 58.90625 
Q 16.5 51.421875 16.5 36.375 
Q 16.5 21.390625 20.328125 13.890625 
Q 24.171875 6.390625 31.78125 6.390625 
Q 39.453125 6.390625 43.28125 13.890625 
Q 47.125 21.390625 47.125 36.375 
Q 47.125 51.421875 43.28125 58.90625 
Q 39.453125 66.40625 31.78125 66.40625 
M 31.78125 74.21875 
Q 44.046875 74.21875 50.515625 64.515625 
Q 56.984375 54.828125 56.984375 36.375 
Q 56.984375 17.96875 50.515625 8.265625 
Q 44.046875 -1.421875 31.78125 -1.421875 
Q 19.53125 -1.421875 13.0625 8.265625 
Q 6.59375 17.96875 6.59375 36.375 
Q 6.59375 54.828125 13.0625 64.515625 
Q 19.53125 74.21875 31.78125 74.21875 
" id="BitstreamVeraSans-Roman-30"/>
      </defs>
      <g transform="translate(36.521875 180.512534871)scale(0.12 -0.12)">
       <use xlink:href="#BitstreamVeraSans-Roman-30"/>
      </g>
     </g>
    </g>
    <g id="xtick_2">
     <g id="line2d_6">
      <path clip-path="url(#pea842112d3)" d="M 148.946641 167.39441 
L 148.946641 7.2 
" style="fill:none;stroke:#000000;stroke-dasharray:1.000000,3.000000;stroke-dashoffset:0.0;stroke-width:0.5;"/>
     </g>
     <g id="line2d_7">
      <g>
       <use style="stroke:#000000;stroke-width:0.5;" x="148.946641436" xlink:href="#m06076b4163" y="167.394409871"/>
      </g>
     </g>
     <g id="line2d_8">
      <g>
       <use style="stroke:#000000;stroke-width:0.5;" x="148.946641436" xlink:href="#m45fa3c0eab" y="7.2"/>
      </g>
     </g>
     <g id="text_2">
      <!-- 1000 -->
      <defs>
       <path d="M 12.40625 8.296875 
L 28.515625 8.296875 
L 28.515625 63.921875 
L 10.984375 60.40625 
L 10.984375 69.390625 
L 28.421875 72.90625 
L 38.28125 72.90625 
L 38.28125 8.296875 
L 54.390625 8.296875 
L 54.390625 0 
L 12.40625 0 
z
" id="BitstreamVeraSans-Roman-31"/>
      </defs>
      <g transform="translate(133.676641436 180.512534871)scale(0.12 -0.12)">
       <use xlink:href="#BitstreamVeraSans-Roman-31"/>
       <use x="63.623046875" xlink:href="#BitstreamVeraSans-Roman-30"/>
       <use x="127.24609375" xlink:href="#BitstreamVeraSans-Roman-30"/>
       <use x="190.869140625" xlink:href="#BitstreamVeraSans-Roman-30"/>
      </g>
     </g>
    </g>
    <g id="xtick_3">
     <g id="line2d_9">
      <path clip-path="url(#pea842112d3)" d="M 257.553908 167.39441 
L 257.553908 7.2 
" style="fill:none;stroke:#000000;stroke-dasharray:1.000000,3.000000;stroke-dashoffset:0.0;stroke-width:0.5;"/>
     </g>
     <g id="line2d_10">
      <g>
       <use style="stroke:#000000;stroke-width:0.5;" x="257.553907872" xlink:href="#m06076b4163" y="167.394409871"/>
      </g>
     </g>
     <g id="line2d_11">
      <g>
       <use style="stroke:#000000;stroke-width:0.5;" x="257.553907872" xlink:href="#m45fa3c0eab" y="7.2"/>
      </g>
     </g>
     <g id="text_3">
      <!-- 2000 -->
      <defs>
       <path d="M 19.1875 8.296875 
L 53.609375 8.296875 
L 53.609375 0 
L 7.328125 0 
L 7.328125 8.296875 
Q 12.9375 14.109375 22.625 23.890625 
Q 32.328125 33.6875 34.8125 36.53125 
Q 39.546875 41.84375 41.421875 45.53125 
Q 43.3125 49.21875 43.3125 52.78125 
Q 43.3125 58.59375 39.234375 62.25 
Q 35.15625 65.921875 28.609375 65.921875 
Q 23.96875 65.921875 18.8125 64.3125 
Q 13.671875 62.703125 7.8125 59.421875 
L 7.8125 69.390625 
Q 13.765625 71.78125 18.9375 73 
Q 24.125 74.21875 28.421875 74.21875 
Q 39.75 74.21875 46.484375 68.546875 
Q 53.21875 62.890625 53.21875 53.421875 
Q 53.21875 48.921875 51.53125 44.890625 
Q 49.859375 40.875 45.40625 35.40625 
Q 44.1875 33.984375 37.640625 27.21875 
Q 31.109375 20.453125 19.1875 8.296875 
" id="BitstreamVeraSans-Roman-32"/>
      </defs>
      <g transform="translate(242.283907872 180.512534871)scale(0.12 -0.12)">
       <use xlink:href="#BitstreamVeraSans-Roman-32"/>
       <use x="63.623046875" xlink:href="#BitstreamVeraSans-Roman-30"/>
       <use x="127.24609375" xlink:href="#BitstreamVeraSans-Roman-30"/>
       <use x="190.869140625" xlink:href="#BitstreamVeraSans-Roman-30"/>
      </g>
     </g>
    </g>
    <g id="xtick_4">
     <g id="line2d_12">
      <path clip-path="url(#pea842112d3)" d="M 366.161174 167.39441 
L 366.161174 7.2 
" style="fill:none;stroke:#000000;stroke-dasharray:1.000000,3.000000;stroke-dashoffset:0.0;stroke-width:0.5;"/>
     </g>
     <g id="line2d_13">
      <g>
       <use style="stroke:#000000;stroke-width:0.5;" x="366.161174308" xlink:href="#m06076b4163" y="167.394409871"/>
      </g>
     </g>
     <g id="line2d_14">
      <g>
       <use style="stroke:#000000;stroke-width:0.5;" x="366.161174308" xlink:href="#m45fa3c0eab" y="7.2"/>
      </g>
     </g>
     <g id="text_4">
      <!-- 3000 -->
      <defs>
       <path d="M 40.578125 39.3125 
Q 47.65625 37.796875 51.625 33 
Q 55.609375 28.21875 55.609375 21.1875 
Q 55.609375 10.40625 48.1875 4.484375 
Q 40.765625 -1.421875 27.09375 -1.421875 
Q 22.515625 -1.421875 17.65625 -0.515625 
Q 12.796875 0.390625 7.625 2.203125 
L 7.625 11.71875 
Q 11.71875 9.328125 16.59375 8.109375 
Q 21.484375 6.890625 26.8125 6.890625 
Q 36.078125 6.890625 40.9375 10.546875 
Q 45.796875 14.203125 45.796875 21.1875 
Q 45.796875 27.640625 41.28125 31.265625 
Q 36.765625 34.90625 28.71875 34.90625 
L 20.21875 34.90625 
L 20.21875 43.015625 
L 29.109375 43.015625 
Q 36.375 43.015625 40.234375 45.921875 
Q 44.09375 48.828125 44.09375 54.296875 
Q 44.09375 59.90625 40.109375 62.90625 
Q 36.140625 65.921875 28.71875 65.921875 
Q 24.65625 65.921875 20.015625 65.03125 
Q 15.375 64.15625 9.8125 62.3125 
L 9.8125 71.09375 
Q 15.4375 72.65625 20.34375 73.4375 
Q 25.25 74.21875 29.59375 74.21875 
Q 40.828125 74.21875 47.359375 69.109375 
Q 53.90625 64.015625 53.90625 55.328125 
Q 53.90625 49.265625 50.4375 45.09375 
Q 46.96875 40.921875 40.578125 39.3125 
" id="BitstreamVeraSans-Roman-33"/>
      </defs>
      <g transform="translate(350.891174308 180.512534871)scale(0.12 -0.12)">
       <use xlink:href="#BitstreamVeraSans-Roman-33"/>
       <use x="63.623046875" xlink:href="#BitstreamVeraSans-Roman-30"/>
       <use x="127.24609375" xlink:href="#BitstreamVeraSans-Roman-30"/>
       <use x="190.869140625" xlink:href="#BitstreamVeraSans-Roman-30"/>
      </g>
     </g>
    </g>
    <g id="xtick_5">
     <g id="line2d_15">
      <path clip-path="url(#pea842112d3)" d="M 474.768441 167.39441 
L 474.768441 7.2 
" style="fill:none;stroke:#000000;stroke-dasharray:1.000000,3.000000;stroke-dashoffset:0.0;stroke-width:0.5;"/>
     </g>
     <g id="line2d_16">
      <g>
       <use style="stroke:#000000;stroke-width:0.5;" x="474.768440744" xlink:href="#m06076b4163" y="167.394409871"/>
      </g>
     </g>
     <g id="line2d_17">
      <g>
       <use style="stroke:#000000;stroke-width:0.5;" x="474.768440744" xlink:href="#m45fa3c0eab" y="7.2"/>
      </g>
     </g>
     <g id="text_5">
      <!-- 4000 -->
      <defs>
       <path d="M 37.796875 64.3125 
L 12.890625 25.390625 
L 37.796875 25.390625 
z
M 35.203125 72.90625 
L 47.609375 72.90625 
L 47.609375 25.390625 
L 58.015625 25.390625 
L 58.015625 17.1875 
L 47.609375 17.1875 
L 47.609375 0 
L 37.796875 0 
L 37.796875 17.1875 
L 4.890625 17.1875 
L 4.890625 26.703125 
z
" id="BitstreamVeraSans-Roman-34"/>
      </defs>
      <g transform="translate(459.498440744 180.512534871)scale(0.12 -0.12)">
       <use xlink:href="#BitstreamVeraSans-Roman-34"/>
       <use x="63.623046875" xlink:href="#BitstreamVeraSans-Roman-30"/>
       <use x="127.24609375" xlink:href="#BitstreamVeraSans-Roman-30"/>
       <use x="190.869140625" xlink:href="#BitstreamVeraSans-Roman-30"/>
      </g>
     </g>
    </g>
   </g>
   <g id="matplotlib.axis_2">
    <g id="ytick_1">
     <g id="line2d_18">
      <path clip-path="url(#pea842112d3)" d="M 40.339375 151.374969 
L 542.539375 151.374969 
" style="fill:none;stroke:#000000;stroke-dasharray:1.000000,3.000000;stroke-dashoffset:0.0;stroke-width:0.5;"/>
     </g>
     <g id="line2d_19">
      <defs>
       <path d="M 0 0 
L 4 0 
" id="m658180e28e" style="stroke:#000000;stroke-width:0.5;"/>
      </defs>
      <g>
       <use style="stroke:#000000;stroke-width:0.5;" x="40.339375" xlink:href="#m658180e28e" y="151.374968884"/>
      </g>
     </g>
     <g id="line2d_20">
      <defs>
       <path d="M 0 0 
L -4 0 
" id="mb9d2769944" style="stroke:#000000;stroke-width:0.5;"/>
      </defs>
      <g>
       <use style="stroke:#000000;stroke-width:0.5;" x="542.539375" xlink:href="#mb9d2769944" y="151.374968884"/>
      </g>
     </g>
     <g id="text_6">
      <!-- −1.0 -->
      <defs>
       <path d="M 10.59375 35.5 
L 73.1875 35.5 
L 73.1875 27.203125 
L 10.59375 27.203125 
z
" id="BitstreamVeraSans-Roman-2212"/>
       <path d="M 10.6875 12.40625 
L 21 12.40625 
L 21 0 
L 10.6875 0 
z
" id="BitstreamVeraSans-Roman-2e"/>
      </defs>
      <g transform="translate(7.2 154.686218884)scale(0.12 -0.12)">
       <use xlink:href="#BitstreamVeraSans-Roman-2212"/>
       <use x="83.7890625" xlink:href="#BitstreamVeraSans-Roman-31"/>
       <use x="147.412109375" xlink:href="#BitstreamVeraSans-Roman-2e"/>
       <use x="179.19921875" xlink:href="#BitstreamVeraSans-Roman-30"/>
      </g>
     </g>
    </g>
    <g id="ytick_2">
     <g id="line2d_21">
      <path clip-path="url(#pea842112d3)" d="M 40.339375 119.336087 
L 542.539375 119.336087 
" style="fill:none;stroke:#000000;stroke-dasharray:1.000000,3.000000;stroke-dashoffset:0.0;stroke-width:0.5;"/>
     </g>
     <g id="line2d_22">
      <g>
       <use style="stroke:#000000;stroke-width:0.5;" x="40.339375" xlink:href="#m658180e28e" y="119.33608691"/>
      </g>
     </g>
     <g id="line2d_23">
      <g>
       <use style="stroke:#000000;stroke-width:0.5;" x="542.539375" xlink:href="#mb9d2769944" y="119.33608691"/>
      </g>
     </g>
     <g id="text_7">
      <!-- −0.5 -->
      <defs>
       <path d="M 10.796875 72.90625 
L 49.515625 72.90625 
L 49.515625 64.59375 
L 19.828125 64.59375 
L 19.828125 46.734375 
Q 21.96875 47.46875 24.109375 47.828125 
Q 26.265625 48.1875 28.421875 48.1875 
Q 40.625 48.1875 47.75 41.5 
Q 54.890625 34.8125 54.890625 23.390625 
Q 54.890625 11.625 47.5625 5.09375 
Q 40.234375 -1.421875 26.90625 -1.421875 
Q 22.3125 -1.421875 17.546875 -0.640625 
Q 12.796875 0.140625 7.71875 1.703125 
L 7.71875 11.625 
Q 12.109375 9.234375 16.796875 8.0625 
Q 21.484375 6.890625 26.703125 6.890625 
Q 35.15625 6.890625 40.078125 11.328125 
Q 45.015625 15.765625 45.015625 23.390625 
Q 45.015625 31 40.078125 35.4375 
Q 35.15625 39.890625 26.703125 39.890625 
Q 22.75 39.890625 18.8125 39.015625 
Q 14.890625 38.140625 10.796875 36.28125 
z
" id="BitstreamVeraSans-Roman-35"/>
      </defs>
      <g transform="translate(7.2 122.64733691)scale(0.12 -0.12)">
       <use xlink:href="#BitstreamVeraSans-Roman-2212"/>
       <use x="83.7890625" xlink:href="#BitstreamVeraSans-Roman-30"/>
       <use x="147.412109375" xlink:href="#BitstreamVeraSans-Roman-2e"/>
       <use x="179.19921875" xlink:href="#BitstreamVeraSans-Roman-35"/>
      </g>
     </g>
    </g>
    <g id="ytick_3">
     <g id="line2d_24">
      <path clip-path="url(#pea842112d3)" d="M 40.339375 87.297205 
L 542.539375 87.297205 
" style="fill:none;stroke:#000000;stroke-dasharray:1.000000,3.000000;stroke-dashoffset:0.0;stroke-width:0.5;"/>
     </g>
     <g id="line2d_25">
      <g>
       <use style="stroke:#000000;stroke-width:0.5;" x="40.339375" xlink:href="#m658180e28e" y="87.2972049355"/>
      </g>
     </g>
     <g id="line2d_26">
      <g>
       <use style="stroke:#000000;stroke-width:0.5;" x="542.539375" xlink:href="#mb9d2769944" y="87.2972049355"/>
      </g>
     </g>
     <g id="text_8">
      <!-- 0.0 -->
      <g transform="translate(17.255625 90.6084549355)scale(0.12 -0.12)">
       <use xlink:href="#BitstreamVeraSans-Roman-30"/>
       <use x="63.623046875" xlink:href="#BitstreamVeraSans-Roman-2e"/>
       <use x="95.41015625" xlink:href="#BitstreamVeraSans-Roman-30"/>
      </g>
     </g>
    </g>
    <g id="ytick_4">
     <g id="line2d_27">
      <path clip-path="url(#pea842112d3)" d="M 40.339375 55.258323 
L 542.539375 55.258323 
" style="fill:none;stroke:#000000;stroke-dasharray:1.000000,3.000000;stroke-dashoffset:0.0;stroke-width:0.5;"/>
     </g>
     <g id="line2d_28">
      <g>
       <use style="stroke:#000000;stroke-width:0.5;" x="40.339375" xlink:href="#m658180e28e" y="55.2583229613"/>
      </g>
     </g>
     <g id="line2d_29">
      <g>
       <use style="stroke:#000000;stroke-width:0.5;" x="542.539375" xlink:href="#mb9d2769944" y="55.2583229613"/>
      </g>
     </g>
     <g id="text_9">
      <!-- 0.5 -->
      <g transform="translate(17.255625 58.5695729613)scale(0.12 -0.12)">
       <use xlink:href="#BitstreamVeraSans-Roman-30"/>
       <use x="63.623046875" xlink:href="#BitstreamVeraSans-Roman-2e"/>
       <use x="95.41015625" xlink:href="#BitstreamVeraSans-Roman-35"/>
      </g>
     </g>
    </g>
    <g id="ytick_5">
     <g id="line2d_30">
      <path clip-path="url(#pea842112d3)" d="M 40.339375 23.219441 
L 542.539375 23.219441 
" style="fill:none;stroke:#000000;stroke-dasharray:1.000000,3.000000;stroke-dashoffset:0.0;stroke-width:0.5;"/>
     </g>
     <g id="line2d_31">
      <g>
       <use style="stroke:#000000;stroke-width:0.5;" x="40.339375" xlink:href="#m658180e28e" y="23.2194409871"/>
      </g>
     </g>
     <g id="line2d_32">
      <g>
       <use style="stroke:#000000;stroke-width:0.5;" x="542.539375" xlink:href="#mb9d2769944" y="23.2194409871"/>
      </g>
     </g>
     <g id="text_10">
      <!-- 1.0 -->
      <g transform="translate(17.255625 26.5306909871)scale(0.12 -0.12)">
       <use xlink:href="#BitstreamVeraSans-Roman-31"/>
       <use x="63.623046875" xlink:href="#BitstreamVeraSans-Roman-2e"/>
       <use x="95.41015625" xlink:href="#BitstreamVeraSans-Roman-30"/>
      </g>
     </g>
    </g>
   </g>
  </g>
 </g>
 <defs>
  <clipPath id="pea842112d3">
   <rect height="160.194409871" width="502.2" x="40.339375" y="7.2"/>
  </clipPath>
 </defs>
</svg>
